# xmcd
#
# Track frame offsets: 
#        150
#        16405
#        37070
#        42215
#        67425
#        85697
#        107615
#        124145
#        141817
#        159847
#        164772
#        173590
#        188802
#        200937
#        218815
#
# Disc length: 3606 seconds
#
# Revision: 8
# Processed by: cddbd v1.5.1PL2 Copyright (c) Steve Scherf et al.
# Submitted via: ExactAudioCopy v0.90b4
#
DISCID=d90e140f
DTITLE=Ani DiFranco - Living In Clip [CD2]
DYEAR=1997
DGENRE=Folk/Rock
TTITLE0=Untouchable Face
TTITLE1=Shameless
TTITLE2=Distracted
TTITLE3=Adam and Eve
TTITLE4=Fire Door
TTITLE5=Both Hands
TTITLE6=Out of Habit
TTITLE7=Every State Line
TTITLE8=Not So Soft
TTITLE9=Travel Tips
TTITLE10=Wrong With Me
TTITLE11=In or Out
TTITLE12=We're All Gonna Blow
TTITLE13=Letter to a John
TTITLE14=Overlap
EXTD=YEAR: 1997
EXTT0=
EXTT1=
EXTT2=
EXTT3=
EXTT4=
EXTT5=
EXTT6=
EXTT7=
EXTT8=
EXTT9=
EXTT10=
EXTT11=
EXTT12=
EXTT13=
EXTT14=
PLAYORDER=
